# .PCD v0.7 - Point Cloud Data file format
VERSION 0.7
FIELDS x y z rgba label
SIZE 4 4 4 4 4
TYPE F F F U U
COUNT 1 1 1 1 1
WIDTH 306
HEIGHT 1
VIEWPOINT 0 0 0 1 0 0 0
POINTS 306
DATA ascii
0.71189898 0.77586401 0.043058999 4278190080 269
0.749111 0.73999798 0.043058999 4278190080 269
0.75363803 0.73538798 0.043058999 4278190080 269
0.69320703 0.79266298 0.033645999 4278190080 269
0.698722 0.78914303 0.033643 4278190080 269
0.74050999 0.74866301 0.033645999 4278190080 269
0.76829302 0.72158402 0.033643 4278190080 269
0.79156703 0.699 0.033638 4278190080 269
0.678469 0.80654502 0.024946 4278190080 269
0.68831497 0.79815799 0.024946 4278190080 269
0.70222402 0.78460801 0.024956999 4278190080 269
0.70769501 0.78102601 0.024946 4278190080 269
0.72058302 0.76640898 0.024968 4278190080 269
0.650796 0.83389199 0.015263 4278190080 269
0.66477603 0.82021803 0.015303 4278190080 269
0.684057 0.80289602 0.015323 4278190080 269
0.75874102 0.73128599 0.015344 4278190080 269
0.68335998 0.80184102 0.0053810002 4278190080 269
0.68892002 0.79838902 0.005351 4278190080 269
0.711734 0.77540898 0.0054100002 4278190080 269
0.721196 0.76661599 0.0054100002 4278190080 269
0.77272302 0.71758997 0.005351 4278190080 269
0.77784801 0.71351099 0.0053209998 4278190080 269
0.68420702 0.80202198 -0.0040750001 4278190080 269
0.759525 0.73109603 -0.0040750001 4278190080 269
0.65125602 0.83417702 -0.022654001 4278190080 269
0.66587102 0.82127303 -0.022598 4278190080 269
0.711604 0.775217 -0.022315999 4278190080 269
0.75402302 0.73545498 -0.022373 4278190080 269
0.67577499 0.81235403 -0.032230001 4278190080 269
0.703219 0.784702 -0.032033 4278190080 269
0.68977702 0.79828799 -0.041781001 4278190080 269
0.722049 0.76648301 -0.041630998 4278190080 269
0.72673899 0.76203799 -0.041630998 4278190080 269
0.75429499 0.73477298 -0.041630998 4278190080 269
0.68896401 0.79805303 -0.050485 4278190080 269
0.71787101 0.77215302 -0.050485 4278190080 269
0.75489402 0.73599899 -0.050485 4278190080 269
0.68058503 0.80795002 -0.060364999 4278190080 269
0.68488401 0.80300099 -0.060272999 4278190080 269
0.72209501 0.76697803 -0.060088001 4278190080 269
0.730762 0.75734198 -0.059996001 4278190080 269
0.745987 0.74517101 -0.060180001 4278190080 269
0.78312802 0.70900601 -0.060364999 4278190080 269
0.69901103 0.789419 -0.070068002 4278190080 269
0.72759402 0.763156 -0.070068002 4278190080 269
0.74151701 0.74963403 -0.070068002 4278190080 269
0.75447798 0.73516399 -0.069966003 4278190080 269
0.61990499 0.86759198 -0.081114002 4278190080 269
0.68559998 0.80365098 -0.080004998 4278190080 269
0.65353298 0.83587402 -0.099048004 4278190080 269
0.65009803 0.84248 -0.119795 4278190080 269
0.66425699 0.82882798 -0.1195 4278190080 269
0.714625 0.77777398 -0.118618 4278190080 269
0.73349798 0.76000202 -0.118618 4278190080 269
0.73814702 0.75548702 -0.118618 4278190080 269
0.74736297 0.74637198 -0.118618 4278190080 269
0.76097399 0.73248899 -0.118618 4278190080 269
2.1301019 -1.262267 0.030169001 4294901760 146
2.1530941 -1.222912 -0.059197001 4294901760 146
2.1138389 -1.323786 -0.059893999 4294901760 146
2.1181271 -1.358291 -0.081299998 4294901760 146
2.1087749 -1.3758301 -0.151519 4294901760 146
2.1111751 -1.2828619 -0.16865 4294901760 146
2.1049609 -1.296836 -0.168816 4294901760 146
2.1003461 -1.311838 -0.169148 4294901760 146
2.223901 -1.225134 -0.197905 4294901760 146
2.140697 -1.2487431 -0.19227 4294901760 146
2.1034729 -1.297245 -0.191624 4294901760 146
2.247411 -1.2394429 -0.224729 4294901760 146
2.1989629 -1.2303751 -0.219947 4294901760 146
2.108855 -1.284088 -0.214757 4294901760 146
2.101783 -1.297526 -0.21485899 4294901760 146
2.092422 -1.327484 -0.215673 4294901760 146
2.0917671 -1.345142 -0.216589 4294901760 146
2.0893581 -1.3626291 -0.240547 4294901760 146
-3.335819 0.54149997 -0.216151 4278255360 131
-3.269006 0.57189697 -0.211588 4278255360 131
-3.3140211 0.511841 -0.24232601 4278255360 131
-3.3251841 0.55542099 -0.24382301 4278255360 131
-3.2785079 0.56833601 -0.240164 4278255360 131
-4.402986 0.65886599 0.02534 4294967040 578
-4.349422 0.50607997 -0.011033 4294967040 578
-4.3048019 0.50332099 -0.050505999 4294967040 578
-4.3163948 0.50710797 -0.09234 4294967040 578
-4.2975121 0.53559399 -0.131092 4294967040 578
-4.390286 0.712152 -0.13562401 4294967040 578
-4.3095078 0.55589098 -0.16723301 4294967040 578
-4.3454499 0.64451599 -0.210844 4294967040 578
-3.3216591 0.120064 0.00038300001 4278190335 544
-3.303875 0.13972899 0.00056700001 4278190335 544
-3.2392721 0.19846299 -0.028650001 4278190335 544
-3.232655 0.29782501 -0.02867 4278190335 544
-3.236712 0.338303 -0.028829999 4278190335 544
-3.206845 0.29709899 -0.058936 4278190335 544
-3.584276 -0.017583 -0.102156 4278190335 544
-3.1821539 0.25821799 -0.086971 4278190335 544
-3.16592 0.27104399 -0.112369 4278190335 544
-3.1681759 0.29082799 -0.112557 4278190335 544
-3.1742849 0.31104001 -0.112932 4278190335 544
-3.1250179 0.326704 -0.22469699 4278190335 544
-3.1445291 0.3678 -0.22669201 4278190335 544
-3.155071 0.388668 -0.22777399 4278190335 544
1.571 -3.8735571 0.026005 4294902015 212
1.544613 -3.9236929 -0.0092799999 4294902015 212
1.593307 -3.850533 -0.087030001 4294902015 212
1.554462 -3.891145 -0.087711997 4294902015 212
1.639232 -3.8374231 -0.124972 4294902015 212
1.612949 -3.84096 -0.124701 4294902015 212
1.551218 -3.8932071 -0.125669 4294902015 212
1.541495 -3.9389451 -0.12718 4294902015 212
1.542673 -3.920784 -0.161038 4294902015 212
3.51195 2.4773049 -0.010157 4278255615 234
3.58249 2.397604 -0.010298 4278255615 234
3.6434741 2.374212 -0.010709 4278255615 234
3.5330181 2.424907 -0.049523 4278255615 234
3.5503139 2.404866 -0.049582999 4278255615 234
3.5015459 2.5569401 -0.131286 4278255615 234
3.4968319 2.4882939 -0.129581 4278255615 234
3.5014031 2.459326 -0.129078 4278255615 234
3.504494 2.5005291 -0.20588601 4278255615 234
0.21250001 4.3926282 -0.011239 4294967295 309
0.47425899 4.2839589 -0.050023999 4294967295 309
0.266054 4.304883 -0.091361001 4294967295 309
0.41901001 4.2384591 -0.089759 4294967295 309
0.44553199 4.240778 -0.089906998 4294967295 309
0.268801 4.286365 -0.12969799 4294967295 309
0.236053 4.3147869 -0.166107 4294967295 309
0.214017 4.3577828 -0.20915399 4294967295 309
0.24067201 4.2979488 -0.245684 4294967295 309
-3.8728061 1.545453 -0.0087719997 4278190080 281
-3.9799161 1.347537 -0.126095 4278190080 281
-3.9024031 1.483521 -0.125049 4278190080 281
-3.8549621 1.54728 -0.124236 4278190080 281
-3.9318709 1.4316109 -0.159677 4278190080 281
-3.8732331 1.518925 -0.15854999 4278190080 281
-3.751457 1.6603971 -0.155828 4278190080 281
-3.7311771 1.678877 -0.155312 4278190080 281
-3.7044179 1.6967 -0.19287001 4278190080 281
-3.9355421 1.411327 -0.237552 4278190080 281
-3.1787069 -3.183497 -0.012332 4294901760 239
-3.3956749 -3.198324 -0.014128 4294901760 239
-3.2460051 -3.1685209 -0.054559998 4294901760 239
-3.218749 -3.171365 -0.138375 4294901760 239
-3.2481749 -3.16131 -0.138917 4294901760 239
-3.2756081 -3.1608479 -0.176948 4294901760 239
-3.3065071 -3.1517191 -0.177699 4294901760 239
-3.235352 -3.1960061 -0.219578 4294901760 239
-3.2620471 -3.1830671 -0.22014099 4294901760 239
-3.289423 -3.170614 -0.220761 4294901760 239
-2.1543751 -4.468811 0.024096999 4278255360 248
-2.1623981 -4.4159942 0.024204001 4278255360 248
-2.2232339 -4.3362932 0.024312001 4278255360 248
-2.193249 -4.3593831 -0.061464 4278255360 248
-2.1527669 -4.4760232 -0.110763 4278255360 248
-2.194309 -4.3553019 -0.108093 4278255360 248
-2.2429831 -4.3191762 -0.107796 4278255360 248
-2.3383219 -4.307024 -0.108805 4278255360 248
-2.1598959 -4.4108882 -0.153598 4278255360 248
-2.2201979 -4.3303738 -0.15185501 4278255360 248
-2.1539199 -4.489563 -0.197035 4278255360 248
-2.150672 -4.4762168 -0.243186 4278255360 248
-1.173776 -4.4671149 -0.01363 4294967040 287
-1.026216 -4.446187 -0.055101998 4294967040 287
-1.053939 -4.441752 -0.055142 4294967040 287
-0.89985698 -4.515172 -0.099993996 4294967040 287
-1.001178 -4.4507709 -0.098747998 4294967040 287
-1.114969 -4.4442511 -0.099340998 4294967040 287
-1.145956 -4.4518461 -0.099785998 4294967040 287
-1.0890239 -4.438942 -0.140389 4294967040 287
-1.05348 -4.4363561 -0.220254 4294967040 287
5.007163 -0.31414601 0.02396 4278190335 249
5.0173821 -0.36620399 -0.018089 4278190335 249
5.010056 -0.39658999 -0.018034 4278190335 249
5.0445318 -0.308907 -0.064956002 4278190335 249
5.0058641 -0.49202701 -0.064475 4278190335 249
5.0462909 -0.316607 -0.159215 4278190335 249
5.0195189 -0.30825901 -0.246736 4278190335 249
5.0073929 -0.36924601 -0.24628501 4278190335 249
-0.50867599 0.66844702 0.041646 4294902015 74
-0.44761899 0.71667099 0.027207 4294902015 74
-0.53184903 0.67305499 0.019277001 4294902015 74
-0.47130799 0.678137 0.019919001 4294902015 74
-0.46713799 0.68101603 0.019919001 4294902015 74
-0.45985699 0.68835902 0.019879 4294902015 74
-0.45355701 0.69730198 0.019799 4294902015 74
-0.52142 0.66826999 0.011492 4294902015 74
-0.46702701 0.680848 0.012145 4294902015 74
-0.49423999 0.66702503 -0.017344 4294902015 74
-0.46653399 0.68064803 -0.017015999 4294902015 74
-0.48322701 0.669424 -0.046665002 4294902015 74
-0.474976 0.67530298 -0.046665002 4294902015 74
-0.478762 0.671628 -0.054154001 4294902015 74
-0.46631899 0.68032598 -0.054154001 4294902015 74
-0.487894 0.66772699 -0.068774998 4294902015 74
-0.48333201 0.669312 -0.114583 4294902015 74
-2.183872 -5.0761652 0.022716001 4278255615 261
-2.065521 -5.1768441 -0.023964001 4278255615 261
-2.174149 -5.074769 -0.074329004 4278255615 261
-2.177772 -5.0750389 -0.127257 4278255615 261
-2.1522379 -5.0884151 -0.17738201 4278255615 261
-2.184999 -5.078784 -0.17753699 4278255615 261
-2.2181239 -5.069859 -0.17773101 4278255615 261
-2.25366 -5.066195 -0.178157 4278255615 261
-2.1119239 -5.1074948 -0.222754 4278255615 261
5.7926478 -2.3254759 0.020966999 4294967295 497
5.845737 -2.1675601 -0.031117 4294967295 497
5.8239069 -2.2002089 -0.031019 4294967295 497
5.807498 -2.2348249 -0.030987 4294967295 497
5.805315 -2.2379551 -0.088398002 4294967295 497
6.1528621 -2.0837519 -0.21503399 4294967295 497
5.9897971 -2.0695601 -0.208875 4294967295 497
5.81142 -2.2096901 -0.204227 4294967295 497
5.8155608 -2.19822 -0.25518399 4294967295 497
6.0576949 -0.83092999 -0.20023701 4278190080 337
6.0480299 -0.90535301 -0.200276 4278190080 337
6.2056198 -0.645711 -0.25621599 4278190080 337
6.1449461 -0.677544 -0.25354099 4278190080 337
6.1049538 -0.71108001 -0.25185099 4278190080 337
6.074697 -0.74536699 -0.250631 4278190080 337
1.092658 -7.1307721 0.018592 4294901760 389
1.285632 -7.1397109 -0.10913 4294901760 389
1.237348 -7.1218538 -0.108608 4294901760 389
1.102988 -7.123662 -0.108207 4294901760 389
1.0198539 -7.167346 -0.108829 4294901760 389
1.1865391 -7.1135421 -0.177393 4294901760 389
1.141919 -7.1147671 -0.177215 4294901760 389
6.5851941 -1.319057 0.019808 4278255360 120
6.5717101 -1.218014 -0.035975002 4278255360 120
6.5660758 -1.25869 -0.035997 4278255360 120
6.5621529 -1.299732 -0.036040001 4278255360 120
6.5349131 -1.298426 -0.097249001 4278255360 120
6.5100212 -1.29755 -0.160365 4278255360 120
6.5078111 -1.338679 -0.16054299 4278255360 120
2.8049941 6.3419962 -0.038690999 4294967040 223
2.876791 6.294363 -0.038539998 4294967040 223
2.8722701 6.2744298 -0.102025 4294967040 223
2.873708 6.2675571 -0.167989 4294967040 223
2.8829739 6.2719588 -0.2308 4294967040 223
2.9197121 6.2505298 -0.230645 4294967040 223
-9.5728569 -2.0742011 0.012285 4278190335 344
-9.6362925 -2.026119 0.012158 4278190335 344
-9.6360893 -2.0486009 -0.070256002 4278190335 344
-9.5363598 -2.2052929 -0.159987 4278190335 344
-9.5446692 -2.324605 -0.25491101 4278190335 344
-5.8331041 -7.868763 -0.160128 4294902015 317
-5.9842982 -7.86901 -0.161954 4294902015 317
-5.7173681 -8.1111069 -0.25787801 4294902015 317
-5.735661 -8.0319481 -0.25627601 4294902015 317
-5.7707739 -7.9771671 -0.255564 4294902015 317
-2.2948301 -8.4488888 0.014826 4278255615 361
-2.3447521 -8.4279051 0.014843 4278255615 361
-2.451077 -8.4090567 0.014816 4278255615 361
-2.4311919 -8.4101572 -0.058385 4278255615 361
-2.2822061 -8.4556618 -0.13931499 4278255615 361
-2.3366001 -8.4303207 -0.22299001 4278255615 361
6.5305958 -6.0833268 0.014411 4294967295 402
6.6354918 -6.0038209 -0.060485002 4294967295 402
6.5503168 -6.0745988 -0.060322002 4294967295 402
6.6612759 -5.8948979 -0.22735099 4294967295 402
6.5869789 -6.048965 -0.22877499 4294967295 402
6.4620318 -6.0820708 -0.22672801 4294967295 402
7.9761829 4.917264 -0.15159801 4278190080 341
7.988266 4.8573222 -0.151177 4278190080 341
8.1298676 4.7406878 -0.152421 4278190080 341
7.9756508 4.9100451 -0.24132399 4278190080 341
7.9885402 4.8506398 -0.24073 4278190080 341
8.0190096 4.8020449 -0.24076 4278190080 341
4.434299 8.5178928 0.012754 4294901760 160
4.4635649 8.4800835 -0.155873 4294901760 160
4.3133078 8.5605173 -0.24785 4294901760 160
4.3634772 8.5294409 -0.247702 4294901760 160
1.3434629 8.9719687 0.014052 4278255360 206
1.569103 8.9697866 0.013968 4278255360 206
1.331318 9.027853 -0.062399998 4278255360 206
1.336177 9.0217505 -0.14658099 4278255360 206
1.498675 8.9412746 -0.23242401 4278255360 206
-10.865422 -1.93849 0.0092500001 4294967040 200
-10.858879 -1.6885459 -0.082570001 4294967040 200
-10.899465 -1.893824 -0.18557701 4294967040 200
-10.907078 -1.757542 -0.185276 4294967040 200
-10.261961 -4.0873032 0.0092280004 4278190335 198
-10.274939 -3.947083 0.009323 4278190335 198
-10.292979 -4.1265931 -0.083651997 4278190335 198
-10.317649 -3.9176171 -0.083077997 4278190335 198
-10.276472 -4.1123919 -0.185697 4278190335 198
-10.238489 -3.9521289 -0.18381 4278190335 198
-7.7855482 -6.8650908 0.010856 4294902015 303
-7.7668538 -6.681005 0.011185 4294902015 303
-7.817461 -6.671782 -0.074864998 4294902015 303
-7.7032571 -6.8146582 -0.169962 4294902015 303
-7.7757068 -6.7104688 -0.169681 4294902015 303
-4.1733508 -9.2824106 -0.073783003 4278255615 143
-4.3071599 -9.2740316 -0.074303001 4278255615 143
-4.1753178 -9.2711353 -0.167614 4278255615 143
-4.301425 -9.2463951 -0.168216 4278255615 143
-3.4885769 -11.196074 0.0075639999 4294967295 396
-3.6117909 -11.109627 0.0076740002 4294967295 396
-3.764859 -11.114665 0.0075449999 4294967295 396
-3.5238631 -11.157073 -0.090264 4294967295 396
-3.656446 -11.100643 -0.090122998 4294967295 396
9.2647285 -13.023836 -0.0028349999 4278190080 1733
9.4377031 -12.701644 -0.13488901 4278190080 1733
9.051033 -13.16731 -0.136555 4278190080 1733
8.9543505 -13.19943 -0.136252 4278190080 1733
8.8481569 -13.216733 -0.135765 4278190080 1733
