# .PCD v0.7 - Point Cloud Data file format
VERSION 0.7
FIELDS x y z
SIZE 4 4 4
TYPE F F F
COUNT 1 1 1
WIDTH 1000
HEIGHT 1
VIEWPOINT 0 0 0 1 0 0 0
POINTS 1000
DATA ascii
0.0 -0.0 0.0
0.0 0.0 -0.0
0.0 -0.0 0.0
0.9415006041526794 0.03907990828156471 -0.1036992147564888
0.0 -0.0 0.0
0.9588439464569092 0.03113015554845333 -0.035345401614904404
11.219878196716309 -0.11397950351238251 -1.1278624534606934
7.641229629516602 0.129459410905838 -1.1271576881408691
0.0 -0.0 0.0
0.9361286163330078 -0.05635671317577362 -0.22740322351455688
0.0 -0.0 0.0
5.495969295501709 0.04444018751382828 -1.2295421361923218
0.0 -0.0 0.0
0.0 -0.0 0.0
0.0 -0.0 0.0
0.0 -0.0 0.0
0.9203800559043884 -0.07209960371255875 -0.19707436859607697
0.0 -0.0 0.0
16.693954467773438 -2.0576162338256836 -0.30240896344184875
0.0 -0.0 0.0
8.247832298278809 -1.1010680198669434 -1.065945029258728
0.0 -0.0 0.0
6.9635162353515625 -1.2373154163360596 -1.1024796962738037
5.914597034454346 -1.0728650093078613 -1.165176272392273
0.0 -0.0 0.0
4.36326789855957 -0.9377188086509705 -1.2175614833831787
4.263445854187012 -0.7493870854377747 -1.225744366645813
6.914221286773682 -1.4929932355880737 -1.1026337146759033
0.0 -0.0 0.0
15.858723640441895 -3.7078144550323486 -0.1392865777015686
16.069002151489258 -2.592627763748169 -0.4489664137363434
0.0 -0.0 0.0
20.929168701171875 -2.7393531799316406 -0.7776724696159363
15.151090621948242 -2.6411380767822266 -0.9837707281112671
0.0 -0.0 0.0
0.0 -0.0 0.0
5.777102947235107 -1.5509254932403564 -1.1594674587249756
15.87918758392334 -3.115057945251465 -0.44634702801704407
0.0 -0.0 0.0
5.297049045562744 -1.2662407159805298 -1.1626135110855103
4.793674468994141 -1.3519419431686401 -1.2077114582061768
0.0 -0.0 0.0
7.730790138244629 -1.8968076705932617 -1.0946427583694458
15.288492202758789 -3.3554491996765137 -0.5766823291778564
14.775586128234863 -3.2428789138793945 -1.1108770370483398
0.0 -0.0 0.0
0.0 -0.0 0.0
0.0 -0.0 0.0
0.0 -0.0 0.0
13.777173042297363 -3.5599727630615234 -1.0449626445770264
4.0779242515563965 -1.384913682937622 -1.2194781303405762
20.2945613861084 -7.89435338973999 -0.9812212586402893
12.573969841003418 -4.940664291381836 -1.105960726737976
21.84156608581543 -6.07478141784668 -0.8352559804916382
0.0 -0.0 0.0
0.0 -0.0 0.0
6.827310562133789 -2.0134944915771484 -0.783322811126709
0.0 -0.0 0.0
0.0 -0.0 0.0
0.0 -0.0 0.0
0.0 -0.0 0.0
0.0 -0.0 0.0
6.453500270843506 -3.0357766151428223 -1.1117209196090698
0.0 -0.0 0.0
3.8476433753967285 -1.572006106376648 -1.220927119255066
0.0 -0.0 0.0
0.0 -0.0 0.0
8.153127670288086 -4.204905033111572 -1.089012861251831
0.0 -0.0 0.0
0.0 -0.0 0.0
0.0 -0.0 0.0
0.0 -0.0 0.0
0.0 -0.0 0.0
0.0 -0.0 0.0
0.0 -0.0 0.0
3.8592350482940674 -2.160003662109375 -0.6893963813781738
0.0 -0.0 0.0
4.194232940673828 -1.8630362749099731 -1.2091419696807861
0.0 -0.0 0.0
3.7600512504577637 -2.2300593852996826 -0.8473836183547974
3.7480790615081787 -2.226497173309326 -1.014491319656372
0.0 -0.0 0.0
0.0 -0.0 0.0
0.0 -0.0 0.0
0.0 -0.0 0.0
0.0 -0.0 0.0
3.7985761165618896 -2.3618621826171875 -0.6972514390945435
0.0 -0.0 0.0
4.966484546661377 -3.134091854095459 -1.138344645500183
0.0 -0.0 0.0
0.0 -0.0 0.0
13.684149742126465 -6.700741767883301 -0.5613659620285034
7.259829521179199 -3.946894407272339 -0.8306196928024292
3.779981851577759 -2.2409327030181885 -0.7266868948936462
5.644667625427246 -3.1390202045440674 -1.130721092224121
0.0 -0.0 0.0
0.0 -0.0 0.0
3.4692952632904053 -1.7741343975067139 -1.189082384109497
0.0 -0.0 0.0
0.0 -0.0 0.0
3.7811942100524902 -2.255511999130249 -0.4425637722015381
0.0 -0.0 0.0
3.76216459274292 -2.2625198364257812 -0.9371470808982849
0.0 -0.0 0.0
0.0 -0.0 0.0
0.0 -0.0 0.0
0.0 -0.0 0.0
3.793632745742798 -2.233213186264038 -0.3232733905315399
7.881925582885742 -5.486245632171631 -0.8739700317382812
0.0 -0.0 0.0
7.863810062408447 -5.230423450469971 -0.9493367671966553
4.546396732330322 -2.905708074569702 -1.2070558071136475
3.451782703399658 -2.5882437229156494 -1.2216577529907227
0.0 -0.0 0.0
9.01643180847168 -6.990908622741699 -0.20512326061725616
8.2703275680542 -6.627485275268555 -0.9645119309425354
0.0 -0.0 0.0
3.3216919898986816 -2.9921116828918457 -1.2196669578552246
0.0 -0.0 0.0
0.0 -0.0 0.0
3.064767360687256 -2.6179635524749756 -1.1840062141418457
4.9022955894470215 -4.53801155090332 -1.104714274406433
0.0 -0.0 0.0
0.0 -0.0 0.0
0.0 -0.0 0.0
7.089754581451416 -6.43811559677124 -0.9626386761665344
0.0 -0.0 0.0
0.0 -0.0 0.0
0.0 -0.0 0.0
0.0 -0.0 0.0
5.736215114593506 -5.087202072143555 -1.1308053731918335
0.0 -0.0 0.0
0.0 -0.0 0.0
8.784226417541504 -7.835875988006592 -0.8644304871559143
5.768163204193115 -5.6084675788879395 -1.1063588857650757
2.889857530593872 -2.809849739074707 -1.1840062141418457
3.8946523666381836 -3.5817084312438965 -1.1836962699890137
19.58374786376953 -18.127708435058594 -0.983191192150116
6.6771063804626465 -6.182831287384033 -1.001441240310669
0.0 -0.0 0.0
4.310253143310547 -4.483613967895508 -1.0888170003890991
7.02731990814209 -7.349856853485107 -1.022147297859192
4.2958478927612305 -4.551749229431152 -1.095714807510376
4.268374919891357 -4.201366901397705 -1.1089513301849365
0.0 -0.0 0.0
13.614423751831055 -16.789932250976562 -0.9740189909934998
3.1357674598693848 -3.4700801372528076 -1.1817303895950317
2.462980031967163 -2.792750358581543 -1.0938177108764648
5.0855937004089355 -5.49068021774292 -1.1038119792938232
0.0 -0.0 0.0
12.459654808044434 -15.773828506469727 -1.0956772565841675
3.527019739151001 -4.478020668029785 -1.1597234010696411
0.0 -0.0 0.0
4.178858757019043 -5.105510711669922 -1.1550358533859253
0.0 -0.0 0.0
3.4722602367401123 -4.0595502853393555 -1.1950485706329346
0.0 -0.0 0.0
0.0 -0.0 0.0
10.56081771850586 -15.20103931427002 -1.0089200735092163
3.376405954360962 -5.416780948638916 -0.9949733018875122
0.0 -0.0 0.0
2.215589761734009 -3.093687057495117 -1.1177740097045898
0.0 -0.0 0.0
0.0 -0.0 0.0
2.6677632331848145 -4.551784038543701 -0.6263179183006287
6.476747989654541 -10.241863250732422 -1.1028172969818115
2.3677737712860107 -4.112259387969971 -1.1042451858520508
0.0 -0.0 0.0
0.0 -0.0 0.0
2.547640323638916 -4.568993091583252 -0.6210131049156189
2.5658369064331055 -4.623568058013916 -0.04522302374243736
2.722503662109375 -4.548577785491943 -0.48243725299835205
2.139965534210205 -3.040102243423462 -1.1345024108886719
0.0 -0.0 0.0
0.0 -0.0 0.0
4.131237506866455 -6.498540878295898 -1.05894935131073
0.0 -0.0 0.0
0.0 -0.0 0.0
2.129729747772217 -4.221897125244141 -1.1003921031951904
5.726844787597656 -8.831110954284668 -1.158302664756775
0.0 -0.0 0.0
0.0 -0.0 0.0
3.999807834625244 -8.208205223083496 -1.0839438438415527
2.9990620613098145 -6.159984588623047 -1.067979097366333
3.2968857288360596 -5.22127103805542 -1.1433614492416382
0.0 -0.0 0.0
5.257137298583984 -8.55988883972168 -1.1054686307907104
3.755887746810913 -7.954061508178711 -1.0442168712615967
0.0 -0.0 0.0
2.302790403366089 -4.593871593475342 -1.045485496520996
0.0 -0.0 0.0
0.0 -0.0 0.0
1.9149260520935059 -3.8477611541748047 -1.0859475135803223
0.0 -0.0 0.0
1.5551741123199463 -3.5887460708618164 -1.1075018644332886
7.255521297454834 -13.923724174499512 -1.1529890298843384
1.8566513061523438 -3.9406185150146484 -1.1006455421447754
0.0 -0.0 0.0
0.0 -0.0 0.0
0.0 -0.0 0.0
1.5770494937896729 -4.438289165496826 -1.096085786819458
1.8232216835021973 -5.169892311096191 -1.0626072883605957
0.0 -0.0 0.0
7.149756908416748 -21.19916534423828 -0.40222927927970886
2.709959030151367 -7.251309871673584 -1.0645350217819214
0.0 -0.0 0.0
5.8113484382629395 -15.954092979431152 -0.46834999322891235
0.0 -0.0 0.0
0.0 -0.0 0.0
0.0 -0.0 0.0
0.0 -0.0 0.0
0.0 -0.0 0.0
0.0 -0.0 0.0
0.0 -0.0 0.0
3.2517051696777344 -9.977621078491211 -1.05485200881958
2.4565694332122803 -6.701733112335205 -1.0527433156967163
1.4268696308135986 -3.959115505218506 -1.108762264251709
0.0 -0.0 0.0
0.0 -0.0 0.0
4.827203273773193 -18.802419662475586 -1.0581223964691162
3.8711588382720947 -18.832740783691406 -0.8663448095321655
0.0 -0.0 0.0
0.0 -0.0 0.0
0.0 -0.0 0.0
0.0 -0.0 0.0
0.876970648765564 -3.7810258865356445 -1.0990561246871948
0.0 -0.0 0.0
0.0 -0.0 0.0
0.7206137180328369 -4.729587554931641 -1.1133112907409668
0.0 -0.0 0.0
1.1147360801696777 -7.547553539276123 -0.9057031273841858
1.202160120010376 -7.500882625579834 -0.6913453340530396
0.0 -0.0 0.0
0.0 -0.0 0.0
1.241404414176941 -7.468377590179443 -0.7610096335411072
0.449114054441452 -5.726500511169434 -1.113416075706482
1.3802720308303833 -7.4670538902282715 -0.5576356649398804
0.0 -0.0 0.0
0.0 -0.0 0.0
0.0 -0.0 0.0
0.0 -0.0 0.0
0.0 -0.0 0.0
0.0 -0.0 0.0
0.0 -0.0 0.0
0.40140774846076965 -6.9958696365356445 -1.09231436252594
0.7353781461715698 -6.18471097946167 -1.0903689861297607
0.0 -0.0 0.0
0.37833258509635925 -5.48237943649292 -1.1180554628372192
0.0 -0.0 0.0
0.0 -0.0 0.0
0.0 -0.0 0.0
0.0 -0.0 0.0
0.0 -0.0 0.0
0.0 -0.0 0.0
0.6262966990470886 -13.679343223571777 -0.7464169263839722
0.4244210422039032 -10.802988052368164 -0.9839074015617371
0.4587360620498657 -4.165802955627441 -1.10417640209198
0.0 -0.0 0.0
-0.04989451542496681 -4.375789642333984 -1.0183442831039429
0.48181837797164917 -4.948701858520508 -1.1123076677322388
0.0 -0.0 0.0
0.026070861145853996 -4.442329406738281 -0.24214737117290497
0.0 -0.0 0.0
0.0 -0.0 0.0
0.0 -0.0 0.0
0.0 -0.0 0.0
0.20639382302761078 -7.843444347381592 -1.078975796699524
0.0 -0.0 0.0
-0.08407245576381683 -4.081623554229736 -1.155997633934021
-0.9027079343795776 -11.278082847595215 -0.9262166619300842
-1.0594419240951538 -12.825848579406738 -0.11006436496973038
-1.0389301776885986 -11.243330001831055 -0.9243400692939758
-0.0 -0.0 0.0
-0.0 -0.0 0.0
-0.8086562156677246 -7.032174587249756 -1.1034038066864014
-0.0 -0.0 0.0
-0.0 -0.0 0.0
-2.2452149391174316 -18.266862869262695 -0.1573997288942337
-0.059291642159223557 -4.370827674865723 -0.3210030496120453
-1.0012338161468506 -6.99836540222168 -1.1020176410675049
-0.0 -0.0 0.0
-1.6074564456939697 -11.062427520751953 -0.9151203632354736
-0.0 -0.0 0.0
-0.7628539204597473 -5.065999507904053 -1.192185878753662
-0.18141236901283264 -4.403275012969971 -0.16236793994903564
-0.0 -0.0 0.0
-1.8354896306991577 -13.487473487854004 -0.7419539093971252
-0.0 -0.0 0.0
-0.0 -0.0 0.0
-0.0 -0.0 0.0
-0.0 -0.0 0.0
-0.5393168926239014 -3.932483196258545 -1.165968418121338
-0.0 -0.0 0.0
-0.0 -0.0 0.0
-0.0 -0.0 0.0
-0.0 -0.0 0.0
-3.89359712600708 -19.273466110229492 -0.35351452231407166
-0.0 -0.0 0.0
-0.0 -0.0 0.0
-0.0 -0.0 0.0
-0.0 -0.0 0.0
-0.0 -0.0 0.0
-1.107587218284607 -5.614857196807861 -1.221693992614746
-1.293639063835144 -6.459544658660889 -1.1533113718032837
-1.9758044481277466 -9.728363037109375 -0.9978437423706055
-0.9725600481033325 -4.001598358154297 -1.1660783290863037
-0.9841419458389282 -3.995793342590332 -1.1652610301971436
-0.9734035134315491 -4.564688205718994 -1.1792806386947632
-1.566724181175232 -7.574995040893555 -1.1408731937408447
-0.0 -0.0 0.0
-0.0 -0.0 0.0
-1.4273275136947632 -6.409383773803711 -1.2158229351043701
-1.1877692937850952 -3.9280030727386475 -1.1619915962219238
-0.0 -0.0 0.0
-0.0 -0.0 0.0
-1.2554991245269775 -3.9379284381866455 -1.0022237300872803
-1.2719433307647705 -3.961825132369995 -0.5330360531806946
-1.1278122663497925 -4.004479885101318 -0.8880872130393982
-5.331717014312744 -14.490571975708008 -0.6957406997680664
-0.0 -0.0 0.0
-1.2205475568771362 -4.723545551300049 -0.1797460913658142
-3.349494218826294 -8.667043685913086 -1.1030409336090088
-2.9225430488586426 -8.226972579956055 -1.1184227466583252
-4.678647041320801 -13.064933776855469 -0.7564315795898438
-0.0 -0.0 0.0
-1.1252880096435547 -4.001035690307617 -0.9297975301742554
-0.0 -0.0 0.0
-0.0 -0.0 0.0
-0.0 -0.0 0.0
-1.8531290292739868 -4.180561542510986 -1.2475661039352417
-0.0 -0.0 0.0
-5.231173992156982 -12.841819763183594 -0.755832850933075
-2.303142547607422 -4.959181308746338 -1.2724205255508423
-4.516783237457275 -11.789584159851074 -0.8075844645500183
-4.331761360168457 -10.097780227661133 -0.5989187359809875
-3.814418077468872 -10.932489395141602 -0.8502954840660095
-2.3646678924560547 -4.932301044464111 -1.2728737592697144
-4.7789626121521 -9.94327163696289 -0.9031264781951904
-0.0 -0.0 0.0
-2.4576778411865234 -4.893162250518799 -1.2742336988449097
-0.0 -0.0 0.0
-3.6143815517425537 -8.920473098754883 -1.0591977834701538
-0.0 -0.0 0.0
-0.0 -0.0 0.0
-4.079480171203613 -7.731288909912109 -1.119820475578308
-2.2078731060028076 -4.57765007019043 -1.2841273546218872
-2.6483261585235596 -6.003273010253906 -1.2149125337600708
-0.0 -0.0 0.0
-2.6871235370635986 -5.991396427154541 -1.2158229351043701
-2.2743546962738037 -4.53631067276001 -1.282167673110962
-2.5511343479156494 -4.615004062652588 -1.2786422967910767
-0.0 -0.0 0.0
-4.363528251647949 -8.148294448852539 -0.5912454724311829
-0.0 -0.0 0.0
-0.0 -0.0 0.0
-0.0 -0.0 0.0
-0.0 -0.0 0.0
-7.730334281921387 -12.117925643920898 -0.7834819555282593
-1.730722427368164 -2.665444850921631 -0.8998963832855225
-0.0 -0.0 0.0
-1.78411066532135 -2.6131880283355713 -0.4053361117839813
-2.1575686931610107 -3.420510768890381 -1.187951922416687
-2.922837018966675 -4.86411714553833 -1.2694934606552124
-0.0 -0.0 0.0
-1.8009254932403564 -2.600518226623535 -0.4349961578845978
-0.0 -0.0 0.0
-0.0 -0.0 0.0
-0.0 -0.0 0.0
-1.8790701627731323 -2.559389591217041 -0.4366309940814972
-5.344980239868164 -6.584331035614014 -1.086402416229248
-0.0 -0.0 0.0
-5.539010524749756 -6.538495063781738 -0.46709567308425903
-5.5715532302856445 -6.455489635467529 -0.46480968594551086
-1.903814673423767 -2.561007261276245 -0.7138854265213013
-0.0 -0.0 0.0
-0.0 -0.0 0.0
-0.0 -0.0 0.0
-0.0 -0.0 0.0
-3.8366003036499023 -4.352797508239746 -1.238603949546814
-7.609770774841309 -7.837221145629883 -0.994148850440979
-0.0 -0.0 0.0
-8.781498908996582 -8.307744026184082 -0.9896125793457031
-3.970547676086426 -4.209485054016113 -1.2352638244628906
-3.3531851768493652 -3.0579235553741455 -1.2380908727645874
-0.0 -0.0 0.0
-3.4665465354919434 -3.6526389122009277 -1.2723689079284668
-0.0 -0.0 0.0
-0.0 -0.0 0.0
-0.0 -0.0 0.0
-7.509936332702637 -7.495614051818848 -1.0665537118911743
-4.70844030380249 -5.022674083709717 -1.0153902769088745
-5.309153079986572 -4.799239635467529 -1.1835174560546875
-4.277082920074463 -4.137031078338623 -1.041739583015442
-0.0 -0.0 0.0
-0.0 -0.0 0.0
-9.740044593811035 -9.258821487426758 -0.8596104383468628
-8.793107986450195 -8.98834228515625 -0.9233872294425964
-0.0 -0.0 0.0
-0.0 -0.0 0.0
-7.156856060028076 -5.684699058532715 -1.0850046873092651
-3.5823910236358643 -3.25727915763855 -1.2233752012252808
-0.0 -0.0 0.0
-9.345724105834961 -8.659255027770996 -0.935617983341217
-3.640667676925659 -2.6144895553588867 -1.2228254079818726
-9.507125854492188 -8.54154109954834 -0.9385475516319275
-4.120630741119385 -2.813769817352295 -1.1611347198486328
-0.0 -0.0 0.0
-0.0 -0.0 0.0
-13.26611328125 -10.995173454284668 -0.6348181366920471
-0.0 -0.0 0.0
-4.968730449676514 -3.3301029205322266 -1.2169418334960938
-0.0 -0.0 0.0
-0.0 -0.0 0.0
-0.0 -0.0 0.0
-0.0 -0.0 0.0
-0.0 -0.0 0.0
-7.133011341094971 -4.857178688049316 -0.238035187125206
-7.152738094329834 -5.221006870269775 -0.974531888961792
-7.143597602844238 -4.8004961013793945 -0.23740102350711823
-5.353463172912598 -3.022102117538452 -1.1916272640228271
-8.044699668884277 -4.421182632446289 -1.0897201299667358
-0.0 -0.0 0.0
-5.1754279136657715 -3.0260746479034424 -1.2197331190109253
-0.0 -0.0 0.0
-5.484504699707031 -2.8779029846191406 -1.2005711793899536
-0.0 -0.0 0.0
-3.980757713317871 -2.0388240814208984 -1.0407828092575073
-0.0 -0.0 0.0
-7.193155765533447 -4.6646552085876465 -0.9434658885002136
-29.645984649658203 -14.824273109436035 -0.2834734618663788
-3.970947742462158 -1.9683483839035034 -1.2091389894485474
-0.0 -0.0 0.0
-0.0 -0.0 0.0
-24.674898147583008 -12.804768562316895 -0.4998025894165039
-0.0 -0.0 0.0
-0.0 -0.0 0.0
-12.683114051818848 -6.567896842956543 -0.913615345954895
-0.0 -0.0 0.0
-0.0 -0.0 0.0
-16.282217025756836 -6.4581451416015625 -0.789280354976654
-0.0 -0.0 0.0
-10.992517471313477 -4.7841033935546875 -1.091035008430481
-4.8820929527282715 -1.8709138631820679 -1.21666419506073
-4.61622428894043 -2.334904670715332 -1.1572802066802979
-3.8555209636688232 -1.7313750982284546 -1.2415014505386353
-0.0 -0.0 0.0
-7.127326011657715 -3.4656968116760254 -1.168887972831726
-3.919624090194702 -1.894464373588562 -1.1469779014587402
-0.0 -0.0 0.0
-0.0 -0.0 0.0
-0.0 -0.0 0.0
-9.273405075073242 -4.265504360198975 -1.1232986450195312
-6.712284088134766 -2.5084309577941895 -1.184985876083374
-0.0 -0.0 0.0
-23.860515594482422 -8.705156326293945 -0.45664241909980774
-0.0 -0.0 0.0
-0.0 -0.0 0.0
-19.954322814941406 -6.263406753540039 -0.17886528372764587
-0.0 -0.0 0.0
-3.728978395462036 -1.610957145690918 -1.239575982093811
-10.322909355163574 -3.8981289863586426 -1.1091598272323608
-6.018508434295654 -2.5054750442504883 -1.2070837020874023
-3.9043445587158203 -1.3508917093276978 -1.2135993242263794
-6.682244777679443 -1.9727919101715088 -1.1521919965744019
-0.0 -0.0 0.0
-24.46392250061035 -5.979496002197266 -0.21538236737251282
-0.0 -0.0 0.0
-10.796442031860352 -3.0480902194976807 -1.1276624202728271
-0.0 -0.0 0.0
-0.0 -0.0 0.0
-7.25970983505249 -1.2294560670852661 -1.1477617025375366
-6.1066060066223145 -1.7016026973724365 -1.1737661361694336
-8.829666137695312 -1.4197666645050049 -0.7321125864982605
-8.183855056762695 -1.5690195560455322 -1.067469835281372
-5.568395614624023 -1.0625430345535278 -1.1533435583114624
-0.0 -0.0 0.0
-13.119400024414062 -2.4390132427215576 -0.7273673415184021
-5.36200475692749 -1.109701156616211 -1.1688765287399292
-13.256712913513184 -3.2161691188812256 -1.0017521381378174
-0.0 -0.0 0.0
-0.0 -0.0 0.0
-0.0 -0.0 0.0
-0.0 -0.0 0.0
-7.7189507484436035 -1.5236250162124634 -1.1604251861572266
-11.771427154541016 -1.371240258216858 -1.078527808189392
-5.48250150680542 -0.615793764591217 -1.1224415302276611
-4.865232467651367 -0.3481307625770569 -1.1350698471069336
-20.5963077545166 -1.4608370065689087 -0.9304001331329346
-15.11698055267334 -2.1829771995544434 -0.9770041108131409
-7.939426422119141 -1.0429766178131104 -1.101181983947754
-0.0 -0.0 0.0
-10.577369689941406 -1.2614212036132812 -1.0707542896270752
-4.862529277801514 -0.18333353102207184 -1.132349967956543
-10.466880798339844 -1.150642991065979 -1.0584524869918823
-0.0 -0.0 0.0
-0.0 -0.0 0.0
-5.0633134841918945 -0.4929772913455963 -1.138068675994873
-7.710235595703125 0.2137461006641388 -0.6314297914505005
-0.0 -0.0 0.0
-3.783648729324341 -0.1344214379787445 -1.1121371984481812
-0.0 -0.0 0.0
-0.0 -0.0 0.0
-4.75453519821167 0.24405227601528168 -1.107871651649475
-0.0 0.0 0.0
-15.317681312561035 -0.1760370433330536 -0.9798767566680908
-5.578913688659668 0.35114821791648865 -1.0835397243499756
-5.589565277099609 0.36903855204582214 -1.0858232975006104
-0.0 0.0 0.0
-0.0 0.0 0.0
-11.670426368713379 0.5764578580856323 -0.6369090676307678
-9.270549774169922 -0.21397006511688232 -1.0204745531082153
-0.0 0.0 0.0
-0.0 0.0 0.0
-0.0 0.0 0.0
-0.0 0.0 0.0
-0.0 0.0 0.0
-8.807039260864258 0.7576910257339478 -0.1589251458644867
-11.668244361877441 0.7219010591506958 -0.3224628269672394
-19.49669647216797 2.6430954933166504 -0.8865562677383423
-3.7923316955566406 0.09601476788520813 -0.9994655847549438
-0.0 0.0 0.0
-8.772750854492188 0.7367889285087585 -0.88492751121521
-20.537193298339844 2.6593427658081055 -0.3723173439502716
-22.098407745361328 3.755086898803711 -0.19170184433460236
-6.166018009185791 0.5963166952133179 -1.0845059156417847
-15.263858795166016 1.562685251235962 -0.9814726710319519
-11.835665702819824 2.1298389434814453 -0.984472393989563
-0.0 0.0 0.0
-0.0 0.0 0.0
-22.54251480102539 4.115787029266357 -0.1959778368473053
-3.6346545219421387 0.4078724980354309 -1.0743708610534668
-8.152697563171387 1.267113208770752 -1.056923508644104
-0.0 0.0 0.0
-0.0 0.0 0.0
-3.6225993633270264 0.4968181550502777 -1.0740889310836792
-0.0 0.0 0.0
-0.0 0.0 0.0
-0.0 0.0 0.0
-0.0 0.0 0.0
-0.0 0.0 0.0
-0.0 0.0 0.0
-0.0 0.0 0.0
-0.0 0.0 0.0
-24.92255210876465 6.335527420043945 -0.7093079090118408
-0.0 0.0 0.0
-0.0 0.0 0.0
-0.0 0.0 0.0
-0.0 0.0 0.0
-0.0 0.0 0.0
-3.486372470855713 0.9427357316017151 -1.1021047830581665
-0.0 0.0 0.0
-0.0 0.0 0.0
-0.0 0.0 0.0
-3.009519338607788 1.2081223726272583 -0.536286473274231
-5.414768695831299 1.7965643405914307 -1.0563348531723022
-0.0 0.0 0.0
-0.0 0.0 0.0
-0.0 0.0 0.0
-3.285997152328491 1.6202850341796875 -0.5711085200309753
-0.0 0.0 0.0
-2.9819979667663574 1.2612556219100952 -0.566826343536377
-0.0 0.0 0.0
-2.970768928527832 1.3074887990951538 -0.08952858299016953
-0.0 0.0 0.0
-2.9800097942352295 1.281372308731079 -0.7256743311882019
-3.30143404006958 1.5798674821853638 -0.9247578978538513
-0.0 0.0 0.0
-0.0 0.0 0.0
-0.0 0.0 0.0
-12.259820938110352 6.6542887687683105 -0.7603502869606018
-3.2428054809570312 1.6759434938430786 -0.9223082065582275
-0.0 0.0 0.0
-12.201279640197754 6.916247367858887 -0.7644867897033691
-2.9972739219665527 1.420426607131958 -0.8738635778427124
-0.0 0.0 0.0
-0.0 0.0 0.0
-0.0 0.0 0.0
-0.0 0.0 0.0
-0.0 0.0 0.0
-0.0 0.0 0.0
-3.955721616744995 2.1848299503326416 -1.1418004035949707
-0.0 0.0 0.0
-0.0 0.0 0.0
-3.2838633060455322 1.7091751098632812 -0.2718602120876312
-0.0 0.0 0.0
-0.0 0.0 0.0
-0.0 0.0 0.0
-5.168499946594238 3.000086784362793 -1.0462231636047363
-0.0 0.0 0.0
-5.116070747375488 3.0541980266571045 -1.0431190729141235
-0.0 0.0 0.0
-4.446855068206787 3.0417091846466064 -1.0961248874664307
-3.242138624191284 1.8773354291915894 -1.1432585716247559
-0.0 0.0 0.0
-8.07331657409668 5.263242244720459 -0.9687396287918091
-6.105204105377197 4.036829471588135 -1.006499171257019
-3.8558409214019775 2.7978031635284424 -1.1551612615585327
-17.096744537353516 11.586792945861816 -0.5696797370910645
-8.554786682128906 6.805279731750488 -0.8948858380317688
-0.0 0.0 0.0
-0.0 0.0 -0.0
-8.467110633850098 6.950246810913086 -0.8967624306678772
-0.0 0.0 0.0
-0.0 0.0 -0.0
-0.0 0.0 0.0
-5.931052207946777 4.298741817474365 -1.0073165893554688
-10.781126976013184 7.906676769256592 -0.855205774307251
-6.321804523468018 5.460145473480225 -0.991640567779541
-4.756026744842529 3.272050380706787 -1.0688972473144531
-5.690084934234619 3.9419074058532715 -1.020934820175171
-0.0 0.0 0.0
-0.0 0.0 0.0
-3.623934268951416 3.3399739265441895 -1.1468557119369507
-16.911117553710938 12.576055526733398 -0.7764574289321899
-4.904067516326904 4.592733860015869 -1.0473402738571167
-9.42475414276123 7.098999500274658 -0.8664811253547668
-9.761475563049316 8.277921676635742 -0.8186918497085571
-9.89013957977295 8.439330101013184 -0.83165043592453
-0.0 0.0 0.0
-0.0 0.0 0.0
-0.0 0.0 0.0
-2.9482262134552 2.6791248321533203 -1.1701961755752563
-3.436311960220337 3.6700363159179688 -1.1699740886688232
-6.778153896331787 5.900699615478516 -0.9889710545539856
-4.601657867431641 5.055853843688965 -1.0656687021255493
-0.0 0.0 0.0
-3.345820665359497 3.441596746444702 -1.1638803482055664
-3.287684917449951 3.277247428894043 -1.1729114055633545
-0.0 0.0 0.0
-3.1709649562835693 3.785419464111328 -1.1491221189498901
-3.2071619033813477 3.6180527210235596 -1.1723637580871582
-7.0414252281188965 8.581814765930176 -0.9087562561035156
-0.0 0.0 0.0
-0.0 0.0 0.0
-0.0 0.0 0.0
-8.345904350280762 8.367507934570312 -0.8678726553916931
-14.930685997009277 19.23671531677246 -0.20825853943824768
-9.73550796508789 11.648894309997559 -0.8275136947631836
-4.926461696624756 5.18964958190918 -1.0553697347640991
-0.0 0.0 0.0
-2.6274919509887695 3.565593957901001 -1.208349347114563
-0.0 0.0 0.0
-0.0 0.0 0.0
-4.0301337242126465 4.626548767089844 -1.1360788345336914
-4.935001373291016 6.665089130401611 -1.062387228012085
-4.708320140838623 5.612338542938232 -1.0804662704467773
-0.0 0.0 0.0
-0.0 0.0 0.0
-3.928081512451172 5.209872245788574 -1.1422749757766724
-0.0 0.0 0.0
-0.0 0.0 0.0
-0.0 0.0 0.0
-0.0 0.0 0.0
-5.801294803619385 8.14720630645752 -1.0053447484970093
-0.0 0.0 0.0
-6.9741435050964355 9.368736267089844 -0.857692539691925
-2.8809759616851807 4.960274696350098 -1.111893653869629
-0.0 0.0 0.0
-2.5715785026550293 4.595734119415283 -1.22550368309021
-0.0 0.0 0.0
-0.0 0.0 0.0
-0.0 0.0 0.0
-4.744534969329834 7.914310455322266 -0.16589979827404022
-0.0 0.0 0.0
-5.245189666748047 7.874968528747559 -1.0412582159042358
-2.1482787132263184 4.171867370605469 -1.2802029848098755
-9.721603393554688 17.405906677246094 -0.35843992233276367
-4.97723388671875 8.9907865524292 -0.9352376461029053
-0.0 0.0 0.0
-3.9856812953948975 7.416015625 -1.0785244703292847
-0.0 0.0 0.0
-0.0 0.0 0.0
-0.0 0.0 0.0
-2.388688564300537 4.261683940887451 -1.234398603439331
-4.73845911026001 8.043704986572266 -1.0273659229278564
-0.0 0.0 0.0
-0.0 0.0 0.0
-2.0122952461242676 3.4546518325805664 -1.2200206518173218
-2.2216930389404297 4.609226226806641 -1.2407026290893555
-0.0 0.0 0.0
-6.12952184677124 12.20095443725586 -0.8733989596366882
-0.0 0.0 0.0
-7.07643461227417 14.402326583862305 -0.4426247179508209
-4.137607574462891 8.432225227355957 -0.9441360235214233
-2.946357250213623 6.009823799133301 -1.1717630624771118
-0.0 0.0 0.0
-0.0 0.0 0.0
-5.550774097442627 12.445405960083008 -0.8716753721237183
-5.477513313293457 12.486541748046875 -0.8721860647201538
-2.58988618850708 6.618809700012207 -1.175359845161438
-3.194578170776367 7.416224479675293 -1.1104458570480347
-2.2960641384124756 4.868696689605713 -1.2042176723480225
-1.9888356924057007 5.927881717681885 -1.211988925933838
-1.416290521621704 4.331786155700684 -1.2433550357818604
-0.0 0.0 0.0
-3.362154960632324 10.731008529663086 -0.9205869436264038
-1.3562488555908203 4.374194622039795 -1.2494086027145386
-6.504287242889404 18.71473503112793 -0.3562109172344208
-1.7799345254898071 4.721047878265381 -1.2748186588287354
-0.0 0.0 0.0
-2.330428123474121 6.669114112854004 -1.2367746829986572
-2.3739824295043945 6.178089618682861 -1.2254722118377686
-0.0 0.0 0.0
-2.3018736839294434 8.34356689453125 -1.1087658405303955
-1.7478255033493042 5.605536937713623 -1.2534263134002686
-0.0 0.0 -0.0
-0.0 0.0 0.0
-0.0 0.0 0.0
-3.779698610305786 12.634811401367188 -0.8435876965522766
-2.0355329513549805 6.817396640777588 -1.2455694675445557
-0.0 0.0 0.0
-0.0 0.0 0.0
-0.0 0.0 0.0
-0.0 0.0 0.0
-3.324080467224121 14.207663536071777 -0.7953471541404724
-2.193779706954956 8.06428050994873 -1.1492726802825928
-0.0 0.0 0.0
-2.2914772033691406 10.383210182189941 -0.9676840901374817
-0.0 0.0 0.0
-1.0491328239440918 5.001063346862793 -1.2390530109405518
-1.5077861547470093 7.279524326324463 -1.2293636798858643
-3.417390823364258 21.18231964111328 -0.1835004687309265
-2.428590774536133 15.07007884979248 -0.6878182291984558
-1.521377444267273 5.588454723358154 -1.2956911325454712
-0.0 0.0 0.0
-2.0396032333374023 10.62834358215332 -0.9849042892456055
-0.803795337677002 5.27553129196167 -1.2418224811553955
-0.0 0.0 0.0
-0.0 0.0 0.0
-3.050278425216675 20.94528579711914 -0.18102039396762848
-0.0 0.0 0.0
-1.3129671812057495 6.754925727844238 -1.204699993133545
-0.0 0.0 0.0
-1.8147579431533813 8.256462097167969 -1.246804118156433
-0.0 0.0 0.0
-0.0 0.0 0.0
-1.0017393827438354 6.277524471282959 -1.1770431995391846
-0.0 0.0 0.0
-0.0 0.0 0.0
-1.378305196762085 9.80482292175293 -1.0896073579788208
-0.0 0.0 0.0
-0.2388519048690796 4.252826690673828 -1.2061281204223633
-0.0 0.0 0.0
-0.0 0.0 0.0
-0.4604518413543701 4.431117057800293 -1.1737288236618042
-0.4212302565574646 4.156517505645752 -1.2748923301696777
-0.0 0.0 0.0
-0.2819286286830902 4.702507495880127 -1.1903042793273926
-0.08623803406953812 4.470374584197998 -1.2660667896270752
-1.4233821630477905 16.19253158569336 -0.5988836288452148
-0.7385359406471252 14.362632751464844 -0.9199351072311401
-1.062276840209961 13.508810043334961 -0.9950874447822571
0.0 0.0 0.0
0.0 0.0 0.0
-0.214822456240654 5.538826942443848 -1.2400211095809937
0.0 0.0 0.0
1.5049914121627808 20.520132064819336 -0.17596614360809326
0.0 0.0 0.0
0.4422028958797455 4.352697849273682 -1.1936103105545044
0.0 0.0 0.0
0.0 0.0 0.0
0.4807950556278229 13.715620994567871 -1.0078308582305908
0.0 0.0 0.0
0.0 0.0 0.0
0.8935801982879639 16.70276641845703 -0.6162617802619934
0.0 0.0 0.0
0.0 0.0 0.0
0.574908435344696 4.3353400230407715 -0.07862669229507446
0.0 0.0 0.0
0.9209415912628174 13.992966651916504 -1.0298023223876953
0.5999205112457275 4.292862892150879 -0.5552724003791809
0.0 0.0 0.0
1.1533225774765015 16.739933013916016 -0.6182131171226501
0.609362006187439 4.1330647468566895 -1.1829700469970703
0.0 0.0 0.0
0.5509892702102661 4.306082248687744 -0.9267087578773499
0.602052628993988 4.292064666748047 -0.758757472038269
0.0 0.0 0.0
0.6425428986549377 4.30336856842041 -0.43736299872398376
0.8243501782417297 4.346958637237549 -0.24116766452789307
1.0360928773880005 4.502879619598389 -1.0752339363098145
0.8373802900314331 4.310458660125732 -0.8933678269386292
0.7083829045295715 4.306467056274414 -0.12038244307041168
0.7501828670501709 4.299046039581299 -0.43866318464279175
0.0 0.0 0.0
0.0 0.0 0.0
0.8081909418106079 4.317878723144531 -0.4415636360645294
0.6415029764175415 4.281374454498291 -0.6385037899017334
0.6811917424201965 4.277242660522461 -0.6387956142425537
0.0 0.0 0.0
0.0 0.0 0.0
0.0 0.0 0.0
2.172261953353882 7.058102607727051 -1.1511502265930176
0.0 0.0 0.0
0.0 0.0 0.0
0.0 0.0 0.0
0.0 0.0 0.0
1.0299383401870728 4.0891218185424805 -1.2386829853057861
0.0 0.0 0.0
0.9707620739936829 4.4267897605896 -1.0138481855392456
0.0 0.0 0.0
1.2885231971740723 3.994297504425049 -1.188418984413147
0.0 0.0 0.0
5.129832744598389 15.675488471984863 -0.8990312814712524
0.0 0.0 0.0
2.022775411605835 5.46529483795166 -1.1856411695480347
1.049390196800232 3.657212018966675 -1.1610627174377441
2.753547191619873 9.336664199829102 -1.0712302923202515
0.0 0.0 0.0
0.0 0.0 0.0
2.070840358734131 4.682733058929443 -1.191506028175354
3.8495547771453857 8.45899486541748 -1.1032767295837402
4.704038619995117 14.17777156829834 -1.0969617366790771
0.0 0.0 0.0
5.697012901306152 14.73471450805664 -1.0105178356170654
0.0 0.0 0.0
3.386843681335449 7.939563751220703 -1.187009572982788
3.5268642902374268 6.832579612731934 -1.1985886096954346
1.413251280784607 3.6610398292541504 -1.1975464820861816
0.0 0.0 0.0
1.6397675275802612 3.6862785816192627 -1.1851335763931274
5.13358736038208 10.183053970336914 -1.0378336906433105
0.0 0.0 0.0
0.0 0.0 0.0
0.0 0.0 0.0
3.1359589099884033 6.162848949432373 -1.2105631828308105
0.0 0.0 0.0
0.0 0.0 0.0
0.0 0.0 0.0
5.128058433532715 8.310636520385742 -1.1592717170715332
0.0 0.0 0.0
0.0 0.0 0.0
0.0 0.0 0.0
11.787715911865234 18.887662887573242 -0.19041049480438232
0.0 0.0 0.0
0.0 0.0 0.0
0.0 0.0 0.0
2.2001073360443115 3.6023218631744385 -1.19523024559021
0.0 0.0 0.0
0.0 0.0 0.0
9.20995807647705 14.835797309875488 -0.9518257975578308
0.0 0.0 0.0
2.2725229263305664 3.499859094619751 -1.1816078424453735
0.0 0.0 0.0
4.099190711975098 6.199370861053467 -1.2290374040603638
0.0 0.0 0.0
5.568521499633789 9.017854690551758 -1.065353512763977
0.0 0.0 0.0
0.0 0.0 0.0
4.263648986816406 7.189375400543213 -1.2327967882156372
0.0 0.0 0.0
0.0 0.0 0.0
4.758443355560303 6.162678241729736 -1.2136826515197754
5.731051445007324 7.975923538208008 -0.535347580909729
5.228456497192383 8.289156913757324 -0.36107534170150757
0.0 0.0 0.0
4.480798721313477 5.799044609069824 -1.2119063138961792
0.0 0.0 0.0
0.0 0.0 0.0
0.0 0.0 0.0
4.9547648429870605 6.748642921447754 -1.1513161659240723
1.2218446731567383 1.5337927341461182 -0.25120675563812256
0.0 0.0 0.0
0.0 0.0 0.0
0.0 0.0 0.0
1.274483561515808 1.3608787059783936 -0.29063692688941956
1.2341848611831665 1.5092811584472656 -0.26810911297798157
0.0 0.0 0.0
0.0 0.0 0.0
1.24837327003479 1.5261224508285522 -0.2907993793487549
0.0 0.0 0.0
0.0 0.0 0.0
1.3340779542922974 1.2698842287063599 -0.15077945590019226
1.2148616313934326 1.4405404329299927 -0.4215635359287262
1.350070595741272 1.278128743171692 -0.08377157896757126
0.0 0.0 0.0
1.2368769645690918 1.3616207838058472 -0.4115211069583893
0.0 0.0 0.0
1.2788716554641724 1.3393007516860962 -0.203788623213768
1.292300820350647 1.3377784490585327 -0.4161056876182556
0.0 0.0 0.0
1.3179082870483398 1.3389276266098022 -0.06921807676553726
1.3698358535766602 1.2792586088180542 -0.05169882997870445
1.4242392778396606 1.219003677368164 -0.24015212059020996
1.3398370742797852 1.3295944929122925 -0.4973124861717224
0.0 0.0 0.0
1.3558130264282227 1.2875041961669922 -0.06888671219348907
0.0 0.0 0.0
1.4460803270339966 1.3592963218688965 -0.6056322455406189
0.0 0.0 0.0
3.548992395401001 2.6320972442626953 -1.2054542303085327
1.3425484895706177 1.2434991598129272 -0.201382115483284
0.0 0.0 0.0
0.0 0.0 0.0
0.0 0.0 0.0
6.470844745635986 4.577561378479004 -1.235553503036499
0.0 0.0 0.0
4.38767147064209 2.9961183071136475 -1.2363829612731934
1.4347608089447021 1.226762294769287 -0.06954944133758545
0.0 0.0 0.0
0.0 0.0 0.0
3.4951043128967285 2.514639377593994 -1.2192057371139526
0.0 0.0 0.0
18.544092178344727 11.833734512329102 -0.18813565373420715
1.577606439590454 1.2356889247894287 -0.3710462749004364
0.0 0.0 0.0
0.0 0.0 0.0
0.0 0.0 0.0
6.582226276397705 4.127847194671631 -1.2848360538482666
0.0 0.0 0.0
15.0866060256958 9.864114761352539 -1.152998924255371
0.0 0.0 0.0
7.4235029220581055 4.815757751464844 -1.216844916343689
0.0 0.0 0.0
3.752004861831665 2.129852294921875 -1.2216577529907227
6.623663425445557 3.714010715484619 -1.255794644355774
0.0 0.0 0.0
0.0 0.0 0.0
0.0 0.0 -0.0
0.0 0.0 -0.0
0.0 0.0 -0.0
0.0 0.0 0.0
0.0 0.0 0.0
1.7422930002212524 0.8143253326416016 -0.3727878928184509
3.605255365371704 2.02158522605896 -1.2141629457473755
0.0 0.0 0.0
10.064033508300781 5.446569442749023 -1.1502656936645508
0.0 0.0 0.0
0.0 0.0 0.0
0.0 0.0 -0.0
0.0 0.0 0.0
0.0 0.0 0.0
0.7676873207092285 0.3537538945674896 -0.05406877025961876
0.0 0.0 -0.0
0.7710508108139038 0.36909475922584534 -0.09407311677932739
0.0 0.0 0.0
0.0 0.0 -0.0
0.8378773927688599 0.270203173160553 -0.13723237812519073
0.0 0.0 -0.0
0.0 0.0 0.0
0.8708316683769226 0.30729034543037415 -0.15271194279193878
0.8304030299186707 0.28682008385658264 -0.21302852034568787
0.0 0.0 0.0
0.8302261233329773 0.34314313530921936 -0.2366820126771927
0.862689733505249 0.2762918174266815 -0.01628618687391281
0.0 0.0 0.0
0.0 0.0 0.0
0.0 0.0 -0.0
0.0 0.0 0.0
0.8655973076820374 0.27966374158859253 -0.02509116381406784
0.8424117565155029 0.20543573796749115 -0.07098383456468582
0.8477659225463867 0.23589074611663818 -0.17903241515159607
0.0 0.0 0.0
0.0 0.0 0.0
0.0 0.0 -0.0
0.0 0.0 0.0
0.8344240188598633 0.1886075735092163 -0.17404821515083313
0.8582879900932312 0.15784955024719238 -0.20307958126068115
0.8375747203826904 0.1854581981897354 -0.01542334258556366
0.8499234318733215 0.1503783017396927 -0.03889233618974686
0.8528065085411072 0.24611468613147736 -0.06518200039863586
0.0 0.0 0.0
0.8389199376106262 0.22822678089141846 -0.032031770795583725
0.0 0.0 0.0
0.0 0.0 0.0
0.0 0.0 0.0
0.8623193502426147 0.12374606728553772 -0.1772381067276001
0.0 0.0 0.0
0.0 0.0 0.0
0.0 0.0 0.0
0.8774203062057495 0.07198531925678253 -0.13723237812519073
0.0 0.0 0.0
0.0 0.0 0.0
0.8564368486404419 0.15574952960014343 -0.19473570585250854
0.0 0.0 0.0
0.8795968294143677 0.051547594368457794 -0.03970259428024292
0.8393629789352417 0.10315840691328049 -0.023326510563492775
0.0 0.0 0.0
0.8831364512443542 0.0383269265294075 -0.007559976540505886
0.0 0.0 -0.0
0.0 0.0 0.0
0.0 0.0 0.0
0.942039966583252 0.025426579639315605 -0.11187195777893066
0.8899082541465759 0.05670706927776337 -0.11423108726739883
0.0 0.0 0.0
0.875182032585144 0.10952112078666687 -0.16331133246421814
0.0 0.0 0.0
0.9277832508087158 0.004787060432136059 -0.14462538063526154
0.0 0.0 0.0
0.8859749436378479 0.06723641604185104 -0.08931287378072739
0.9508145451545715 -0.003015604568645358 -0.07783744484186172
0.0 0.0 0.0
0.0 0.0 0.0
0.0 -0.0 -0.0
0.0 0.0 0.0
0.0 0.0 0.0
0.9262149930000305 0.04429182410240173 -0.12751531600952148
0.8900600075721741 0.06724372506141663 -0.06554818898439407
0.9115486741065979 0.0020756993908435106 -0.1167723760008812
0.0 0.0 0.0
